<svg width="523" height="477" viewBox="0 0 523 477" fill="none"
    xmlns="http://www.w3.org/2000/svg">
    <path d="M245.5 465.3C232.3 464.8 207.7 460.6 194 456.5C174.7 450.7 152.9 440.8 136 430C125.5 423.3 127.7 424.9 113.4 413.1C103.5 404.9 95.4 396.9 83.5 383.6C77.7 377.2 65 358.2 58.9 347C51.2 332.9 41.8 309.3 39 297C33.9 274.8 32.8 266.9 32.3 247.5C31.7 223.3 32.8 210.5 37.4 190.5C44.9 157.9 57.2 131.4 76.9 105C85.2 93.9 86.5 92.4 98 81C121 58 144.8 42.2 174.4 30.4C227.3 9.3 287.1 9.2 340.3 30.2C356.3 36.5 370.6 44.3 389 56.7C390.4 57.6 396.5 62.5 402.5 67.6C427.4 88.4 445.1 111 459.5 140.5C482.8 188 488.9 238.6 477.4 289.5C456.6 382.2 377.6 453.3 283.5 463.9C273.2 465 256 465.7 245.5 465.3ZM266.5 342.5C267.1 342.3 263.2 342.1 258 342.1C252 342 248 341.6 247.2 340.8C246.4 340 246 334.6 245.9 323.6C245.9 314.7 245.6 305.7 245.2 303.6C244.8 301.4 244.4 308.2 244.3 319.1C244.2 333.8 244.5 339 245.5 341.1C246.9 343.7 247 343.8 256.2 343.3C261.3 343 266 342.7 266.5 342.5ZM152.5 327.3C153.1 325.5 160.1 325.7 162.8 327.6C164 328.4 165 328.9 165 328.6C165 328.3 163.2 326.8 161 325.4C157.5 323.1 157 322.3 157 319C157 316.9 157.6 314.9 158.3 314.7C158.9 314.4 158.3 314.1 156.8 314.1L154 314V304.3C154 297.8 153.7 295 153 296C151.7 298.1 151.1 304.9 150.7 325.5C150.4 338.9 150.5 341.6 151.1 336C151.6 331.9 152.2 327.9 152.5 327.3ZM359 322C359 311 358.6 302 358.2 302C357.7 302 357.6 305.8 357.8 310.4C358 315.1 357.9 320.5 357.6 322.4C357 325.7 356.6 326 353.5 326C351.6 326 350 326.2 350 326.5C350 327.4 358.1 342 358.6 342C358.8 342 359 333 359 322ZM335.9 320.3L336 313.1L339.6 312.8L343.3 312.5L339.6 307.7C337.6 305.1 336 302.5 336 301.9C336 301.4 335.6 301.2 335 301.5C334.4 301.9 334.1 309.6 334.2 321.8C334.3 336.4 334.5 339.7 335 334.5C335.4 330.7 335.8 324.3 335.9 320.3ZM205.4 328.5C212.5 326.4 220.7 326.5 221.3 328.8C221.6 329.9 221.8 329.5 221.9 327.8C222 325.6 222.5 325.1 225.3 324.7C227.5 324.4 226.9 324.3 223.3 324.2C220.3 324.1 218 323.5 217.7 322.8C217.3 322 217.1 322.1 217.1 323.2C217 324.4 215.7 325 211.5 325.5C208.5 325.9 205.2 326 204.2 325.8C202.6 325.3 200 327.7 200 329.5C200 330.2 199.8 330.2 205.4 328.5ZM295.7 328.5C303.6 326.4 309.6 326.5 310.9 328.8C311.8 330.3 311.9 330.1 312 327.8C312 325.5 312.5 325.1 315.3 324.7C317.5 324.4 316.9 324.3 313.3 324.2C310.3 324.1 308 323.5 307.7 322.8C307.3 322 307.1 322.1 307.1 323.1C307 324.8 302.6 326 296.3 326C293.9 326 293 325.5 292.9 324.3C292.8 322.8 292.7 322.9 292.3 324.5C292 325.6 291.1 327.3 290.2 328.3C288.4 330.4 288.5 330.4 295.7 328.5ZM174.3 305C177.1 302.2 179 299.7 178.7 299.4C178.4 299 175.5 301.3 172.4 304.4C169.3 307.5 167.3 310 168 310C168.7 310 171.5 307.7 174.3 305ZM210.6 304.4C210.3 303.5 210 302.4 210 301.9C210 301.4 209.6 301 209 301C208.5 301 208 302.1 208 303.5C208 305.1 208.6 306 209.6 306C210.7 306 211 305.5 210.6 304.4ZM301 305.1C301 303.4 299.8 301 299 301C298.6 301 298 302.1 297.8 303.5C297.4 305.4 297.7 306 299.1 306C300.2 306 301 305.6 301 305.1ZM251.6 234.5C252.2 222.1 252.3 211.5 251.8 210.1C251.3 208.8 249.6 206.2 248.1 204.4C245.6 201.7 245.1 199.9 244.5 193.5C243.2 180.1 244.7 166.7 251 136.5C254.4 119.7 256 117 262.6 117H266.8L267.3 168.3C267.5 196.4 268.3 225.1 268.9 232C269.5 238.9 270.3 247.3 270.6 250.8C271.2 257.7 271.1 257.6 279 255.9C282.8 255.1 284.1 254.3 284.5 252.7C285 250.5 288 202.7 288 197.1C288 194.6 287.4 193.8 284.5 192.4C279.9 190.3 275.4 185 274.1 180.3C270.2 166.3 276.5 142.4 285.5 137.1C289.9 134.6 298.6 134.2 303 136.5C312.7 141.5 319 165.6 314.5 180.6C313 185.9 309.8 189.6 304 192.8C301.2 194.3 300.5 195.3 300.6 197.6C300.9 203.8 304.2 245.5 304.5 245.8C305.3 246.7 314.8 239.7 320.8 233.9C331.7 223.2 338.4 214 343.3 202.9C347.8 192.5 351.2 178 349 178C348.3 178 347.9 175.2 348.1 169.3C348.2 163.6 347.6 158.7 346.6 155.5C345.7 152.8 345 149.1 345 147.5C345 145.8 344 142.7 342.9 140.5C341.7 138.3 339 133.2 336.9 129.1C328.9 113.5 304.8 92 295.4 92C293.7 92 292 91.6 291.5 91.1C290.9 90.5 288.7 89.7 286.5 89.2C284.3 88.6 278.9 87.2 274.6 86.1C270.2 84.9 264.4 84 261.6 84C250.8 84.1 227 91 227 94C227 95 225.6 96.3 223.8 97.1C222 97.8 219.9 99 219.2 99.7C218.5 100.4 217.1 101.4 216.2 102C215 102.8 214.8 103.3 215.8 103.6C217.1 104.2 217.4 108.7 216.4 111.4C216.1 112.3 214.7 113 213.4 113C211.7 113 211 113.6 211 114.9C211 116 210.6 117 210.1 117.2C209.7 117.4 209 118.4 208.6 119.5C208.1 121.4 208.4 121.5 212 121.2L216 120.8V124.8C216 127 215.4 129.3 214.5 130C211.9 132.2 214.7 134.7 220.7 135.5C224.9 136 226 136.5 226 138C226 139.4 227.1 139.9 231.5 140.5C234.5 140.8 237 141.2 237 141.3C237 141.4 237.7 147.4 238.5 154.5C240.3 170.3 240.4 183 238.8 186.5C238.2 187.9 236.2 190 234.3 191.1C231.3 193 231.1 193.5 231.5 196.8C231.8 198.8 232.7 210.4 233.5 222.5C235.7 254.9 235.8 254.9 238.3 255.5C242.7 256.4 245.6 256.8 248 256.6L250.5 256.5L251.6 234.5ZM216.9 227.5C217.5 217.1 218.3 204.9 218.6 200.5L219.1 192.5L215.1 189.8C209.2 185.8 208.9 181.3 212.6 148L213.1 143.5L210.6 148.5C209.2 151.3 207.9 154.7 207.6 156.2C206.8 160 200.3 162.9 192.1 162.9C186.9 162.9 185.3 163.3 183.4 165.1C181.6 166.8 180.3 167.2 177.2 166.8L173.4 166.2L172.3 175.1C171.3 182.3 171.4 185 172.6 190.2C173.5 193.7 173.9 197.7 173.7 199.3C173.5 201 173.8 202 174.6 202C176.1 202 180 208.4 180 211C180 212 180.7 213 181.5 213.4C182.4 213.7 183 215.2 183 217C183 218.9 183.5 220 184.4 220C185.2 220 186.8 221.6 188 223.5C189.2 225.4 190.6 227 191.1 227C191.6 227 192 227.7 192 228.5C192 229.3 192.5 230 193 230C193.6 230 194 231.4 194 233C194 235.7 194.3 236 197 236C199 236 202 237.4 205.3 239.8C210.7 243.8 215.4 246.9 215.6 246.6C215.7 246.6 216.3 238 216.9 227.5Z" fill="#D26021"/>
    <path d="M147.6 356.3C146.6 351.2 146.5 343.2 147.4 322C148.4 297.4 148.8 294.3 151.3 292C153.7 289.7 153.9 289.7 156 291C157.2 291.7 157.4 293.9 157.3 301.5L157 311.1L160 309.4C161.6 308.4 166.1 304.6 169.9 300.9C175.2 295.9 177.5 294.3 179 294.7C182.2 295.5 183.4 298.6 182 302.1C180.5 305.7 172.6 313 170.2 313C168.3 313 160 318 160 319.1C160 319.4 161.7 320.9 163.8 322.3C165.9 323.7 171 327.9 175 331.8C181.5 338 182.1 338.9 181.1 340.8C179.5 343.8 176.9 343.5 173.4 339.9C169.6 335.9 157.1 328.5 155.9 329.7C155.4 330.2 154.8 333.9 154.4 338C154 342.1 153.2 346.4 152.7 347.5C152.1 348.6 151.3 351.5 151 353.9C150.4 359 148.4 360.4 147.6 356.3Z" fill="#FFFFFE"/>
    <path d="M313.7 351.7C312.9 351 311.7 347.4 311 343.5C309.5 335 307.6 330 305.8 330C303.4 330 292.7 333 291.5 334C290.8 334.5 289.8 336.8 289.1 339C287.7 343.7 285.6 345 283.3 342.7C281.8 341.2 281.9 340.6 283.8 335.5C285 332.4 286 329 286 328C286 327 286.6 325.7 287.4 325.1C288.2 324.4 289.1 322 289.5 319.7C290.5 313.3 296 296.2 297.5 295C299.3 293.5 302.7 296.8 303.5 300.7C303.9 302.3 305.8 307.5 307.7 312.3L311.3 321.2L315.5 320.6C318.8 320.1 320 320.3 321.4 321.9C323.9 324.7 322 328 317.9 328C314.4 328 314.4 327.4 317.4 340.9C318.3 345 318.8 349.1 318.5 350.1C317.7 352.4 315.5 353.1 313.7 351.7ZM302.3 322C303.9 322 304 321.5 303.5 318.8C303.1 317 302 313.9 301 312L299.2 308.5L298 311.5C297.3 313.2 296.5 316.5 296.2 318.9C295.7 323.2 295.8 323.3 298.1 322.7C299.4 322.3 301.3 322 302.3 322Z" fill="#FFFFFE"/>
    <path d="M222.5 349.3C222.1 347.8 220.9 342.8 219.8 338.3C217.4 328.8 217.5 328.9 207.7 331.7C201.9 333.3 201.7 333.5 199.4 338.7C197 344.1 195.2 345.2 193 342.5C191.9 341.2 192 340 193.8 335.7C195 332.8 196 329.9 196 329.1C196 328.4 196.7 326.6 197.5 325.2C198.3 323.7 199.9 318.9 201 314.5C206.2 295.2 206.7 293.9 209.9 294.7C211 295 212.2 296.8 212.9 299.3C213.6 301.6 215.8 307.5 217.8 312.3L221.5 321.2L225.3 320.6C229.7 319.9 233 321.3 233 323.8C233 326.4 231 328 227.8 328C224.4 328 224.4 328.6 227.1 338.7C229.7 348.5 229.4 351.4 225.8 351.8C223.5 352.1 223 351.7 222.5 349.3ZM212.3 322C213.9 322 214 321.5 213.5 318.8C213.1 317 212.1 313.9 211.3 312L209.9 308.5L208.5 311.1C206.7 314.4 205 321.7 205.8 322.5C206.2 322.8 207.4 322.9 208.5 322.6C209.6 322.3 211.3 322 212.3 322Z" fill="#FFFFFE"/>
    <path d="M242.5 344C241.4 341.8 241.1 336.8 241.3 319C241.5 299.1 241.7 296.6 243.2 295.6C244.6 294.8 245.4 294.9 246.7 296.3C248.3 297.8 248.5 300.5 248.9 317.3C249.1 328.9 249.6 337 250.3 337.8C250.9 338.6 253.1 339 255.9 338.9C264.5 338.4 269.8 339 271.4 340.6C273.2 342.4 273.3 343 272.1 344.9C271.4 346 268 346.4 257.6 346.6L244 346.8L242.5 344Z" fill="#FFFFFE"/>
    <path d="M332.8 345.9C331.2 345 331 342.8 331 322.1C331 298.1 331.5 295.4 335.5 296.2C336.6 296.4 337.9 297.4 338.5 298.5C339 299.6 340.7 302.1 342.1 304C343.6 305.9 346.5 311 348.6 315.3C350.7 319.5 352.7 323 353.1 323C354.6 323 355.2 316.6 354.5 308C353.8 299.6 353.9 299.2 356.1 297.6C358.3 296.1 358.6 296.1 360.2 297.8C361.6 299.3 361.9 302.4 362.1 322C362.3 334.4 362.1 345.1 361.6 345.8C360.5 347.5 357.6 347.3 355.7 345.3C354.9 344.3 350.9 337.3 347 329.7C343 322.1 339.7 316 339.5 316.2C339.4 316.4 339 322.6 338.6 330C338.1 340.9 337.6 343.8 336.2 345.2C335 346.4 334 346.6 332.8 345.9Z" fill="#FFFFFE"/>
    <path d="M376.1 345.2C375 343.2 372.6 302.4 373.5 301C374.5 299.3 378.8 299.9 379.4 301.8C379.6 302.7 380.1 310.7 380.5 319.5C380.8 328.3 381.4 337 381.7 338.9C382.4 343.7 381.3 347 379 347C377.9 347 376.6 346.2 376.1 345.2Z" fill="#FFFFFE"/>
    <path d="M241.2 259.5C237.3 258.9 233.7 258.1 233.4 257.7C233.1 257.4 232.6 254.8 232.4 251.8C231.2 236.5 228 193.1 228 191.7C228 190.9 229.5 189.2 231.3 188.1C237.5 184.3 238 180.1 235.5 157.6C234.7 150.5 233.8 144.5 233.5 144.2C233.2 143.9 233 149.9 233 157.4C233 168 232.7 171.1 231.8 170.8C230.9 170.5 230.2 166.1 229.6 156.7C229.1 149.2 228.4 143 227.9 143C227.4 143 226.9 149.2 226.8 156.7C226.6 165.9 226.1 170.5 225.3 170.7C224.5 171 224 166.4 223.4 154.8C222.5 136.6 221.6 138 220.4 159.3C220.1 165.7 219.4 171 218.9 171C218.4 171 218 163.5 217.9 154.3C217.8 143.3 217.5 138.7 217 141C215.5 147.4 213.5 167.4 213.6 175.4C213.7 183.9 213.2 183 220.8 189.2C222.4 190.5 222.8 191.7 222.5 193.7C222 196.9 221.5 204.7 219.9 231.5C219.4 242 218.7 251.1 218.5 251.8C218 253.1 207.8 247.3 200.6 241.7L196.8 238.6L198.4 241.8C199.3 243.5 200.4 245.2 201 245.5C201.5 245.8 202 246.6 202 247.1C202 249.1 195.8 244.4 190.7 238.6C178.4 224.5 175.8 220.7 171.6 210.9C170.8 209 168.7 204.3 167 200.6C163.3 192.2 163.3 191.7 166.8 196C168.4 197.8 169.9 198.9 170.2 198.4C170.5 197.9 169.8 193.7 168.7 189.1C167.1 182.8 166.9 180.4 167.7 179C168.4 178.1 169.2 174 169.6 170.1C169.9 166.2 170.8 162.6 171.4 162.2C172.1 161.8 173.6 160.2 174.8 158.6L177 155.7V159.3C177 161.3 177.4 163.1 177.9 163.4C179.2 164.3 181.7 160.9 183.1 156.4L184.4 152.2L185.7 154.7C186.4 156.1 187 157.9 187 158.7C187 159.7 187.6 160 188.6 159.6C192.4 158.2 194.8 157.9 195.5 158.9C195.9 159.7 197 159.4 198.8 158.1C200.3 157.1 201.9 156.3 202.5 156.4C203 156.4 203.8 155.2 204.3 153.5C204.8 151.9 206.7 147.3 208.6 143.3C211.4 137.2 211.7 136 210.5 135C208.4 133.2 208.7 130 211.2 127.3C212.4 126 213.1 124.8 212.8 124.5C212.2 123.9 206 130 206 131.2C206 131.6 205.3 131.7 204.4 131.3C203.3 130.9 202.1 131.5 200.9 133.1C199.5 134.9 199 135.1 199 133.9C199 133 199.7 132 200.5 131.6C201.3 131.3 202 130.4 202 129.5C202 128.7 202.4 128 202.9 128C204.5 128 204.9 124 203.3 123.1C201.9 122.4 202 121.9 204.1 119.1C205.8 116.8 206.1 115.7 205.2 114.8C203.6 113.2 201.4 115.3 198.4 121.2C197.1 123.8 195.5 126 194.9 126C194.4 126 193 127.6 191.8 129.7C190.6 131.7 189.4 132.8 189.2 132.1C189 131.5 189.5 129.8 190.4 128.5C191.3 127.2 192 125.5 192 124.8C192 124.1 196.1 119.5 201.2 114.6C206.2 109.7 209.8 105.4 209.2 105.2C207 104.5 208 102.9 210.3 103.5C212.3 104 212.3 104 210.8 102.7C209.3 101.5 209.5 101.2 213.1 99C215.2 97.6 217 96.3 217 96C217 95.7 218.6 94.8 220.5 94.1C222.8 93.3 224 92.3 223.8 91.3C223.4 89.3 235.4 84.8 247.4 82.4C257.6 80.3 271.9 81 281.3 83.9C285 85.1 289.3 86.2 291 86.3C292.6 86.4 294.2 87.1 294.5 87.8C294.8 88.6 295.8 88.9 297 88.5C299.3 87.8 307.1 91.8 315.5 98C323.7 104.1 335.7 117.8 339.9 126.1C342 130.2 344.7 135.3 345.9 137.5C347 139.7 348 142.8 348 144.4C348 147.5 351.4 160.4 353 163.2C354.1 165.1 353.3 168.3 351.9 167.4C351.4 167.1 351.1 168.8 351.1 171.2C351.2 173.6 351.4 174.7 351.7 173.8C352.3 171.5 354 171.5 354 173.8C354 175.4 351.6 190.3 350.6 194.6C349.8 198.5 343.9 211.5 340.7 216.5C336.2 223.7 331.4 229.4 323.8 236.8C317.6 242.9 304.8 251.9 302.4 252C301.4 252 297.6 209.5 297.5 197.1C297.5 191.9 297.7 191.6 301 189.8C309 185.3 313 178.3 313 168.5C313 162.4 309.3 150.3 305.9 145.4C298.6 134.8 288.1 135.9 282.1 147.9C276.4 159.2 274.7 168.9 277.1 177.5C278.3 181.7 285.8 190 288.5 190C289.3 190 290.3 190.7 290.7 191.5C291.5 192.8 288.6 251.1 287.5 255.7C287 257.9 284.5 258.7 272.3 260.5L268.2 261.1L267.6 253.8C267.3 249.8 266.6 241 266 234.3C265.5 227.6 265 219.4 265 216.1C265 211.4 264.6 209.9 263.3 209.1C261.8 208.3 261.7 207.8 262.8 206.1C264.6 203 264.6 120 262.7 120C259.3 120 256.9 125.4 254 139.5C248.8 164.4 247.9 171 247.7 182C247.5 195.5 248.1 198.4 251.4 201.9C255.8 206.5 256 208.3 254.9 233.2C254.3 246 253.7 257.5 253.4 258.8C252.9 261.3 252.2 261.4 241.2 259.5ZM188.3 230.4C187.6 230.1 186.1 228.3 184.9 226.4C183.7 224.5 182.6 223.1 182.3 223.4C181.5 224.1 187.1 231 188.4 230.9C189.1 230.9 189.1 230.7 188.3 230.4ZM174.9 208.6C172 203.6 171.3 204.8 174.1 210.2C175.3 212.5 176.5 214 176.7 213.4C176.9 212.8 176.1 210.6 174.9 208.6Z" fill="#FFFFFE"/>
    <path d="M195.5 141C196.4 139.4 197.7 138 198.5 138C200.3 138 200.3 138.2 198.8 141.5C198.2 142.9 196.8 144 195.8 144C194.1 144 194 143.8 195.5 141Z" fill="#FFFFFE"/>
    <path d="M184.7 139.3C184.3 138.7 184.7 137.7 185.5 137C187.6 135.3 188.3 136.2 186.6 138.5C185.8 139.6 185.1 139.9 184.7 139.3Z" fill="#FFFFFE"/>
    <path d="M193 135.7C193 134.6 196.3 129 197.5 128C199.8 126.1 199.3 128 196.4 132.2C194 135.6 193 136.6 193 135.7Z" fill="#FFFFFE"/>
    <path d="M234 82C234 80.9 240.5 79 244 79.1C245.9 79.1 245.2 79.6 241.5 81C235.7 83.1 234 83.4 234 82Z" fill="#FFFFFE"/>
    <path d="M247 79C247 78.5 247.7 78 248.5 78C249.3 78 250 78.5 250 79C250 79.6 249.3 80 248.5 80C247.7 80 247 79.6 247 79Z" fill="#FFFFFE"/>
</svg>
